<?xml version="1.0" encoding="UTF-8" standalone="no"?>
<!DOCTYPE svg PUBLIC "-//W3C//DTD SVG 1.1//EN"
 "http://www.w3.org/Graphics/SVG/1.1/DTD/svg11.dtd">
<!-- Generated by graphviz version 4.0.0 (0)
 -->
<!-- Pages: 1 -->
<svg width="559pt" height="404pt"
 viewBox="0.00 0.00 559.49 404.00" xmlns="http://www.w3.org/2000/svg" xmlns:xlink="http://www.w3.org/1999/xlink">
<g id="graph0" class="graph" transform="scale(1 1) rotate(0) translate(4 400)">
<polygon fill="white" stroke="transparent" points="-4,4 -4,-400 555.49,-400 555.49,4 -4,4"/>
<!-- 0 -->
<g id="node1" class="node">
<title>0</title>
<ellipse fill="none" stroke="black" cx="144.25" cy="-90" rx="27" ry="18"/>
<text text-anchor="middle" x="144.25" y="-86.3" font-family="Times,serif" font-size="14.00">0</text>
</g>
<!-- a_1_4 -->
<g id="node4" class="node">
<title>a_1_4</title>
<ellipse fill="none" stroke="black" cx="47.25" cy="-18" rx="36.29" ry="18"/>
<text text-anchor="middle" x="47.25" y="-14.3" font-family="Times,serif" font-size="14.00">a_1_4</text>
</g>
<!-- 0&#45;&gt;a_1_4 -->
<g id="edge3" class="edge">
<title>0&#45;&gt;a_1_4</title>
<path fill="none" stroke="black" d="M126.45,-76.16C112.11,-65.81 91.68,-51.06 75.16,-39.14"/>
<polygon fill="black" stroke="black" points="77.08,-36.22 66.93,-33.2 72.99,-41.89 77.08,-36.22"/>
</g>
<!-- b_1_14 -->
<g id="node5" class="node">
<title>b_1_14</title>
<ellipse fill="none" stroke="black" cx="144.25" cy="-18" rx="42.79" ry="18"/>
<text text-anchor="middle" x="144.25" y="-14.3" font-family="Times,serif" font-size="14.00">b_1_14</text>
</g>
<!-- 0&#45;&gt;b_1_14 -->
<g id="edge4" class="edge">
<title>0&#45;&gt;b_1_14</title>
<path fill="none" stroke="black" d="M144.25,-71.7C144.25,-63.98 144.25,-54.71 144.25,-46.11"/>
<polygon fill="black" stroke="black" points="147.75,-46.1 144.25,-36.1 140.75,-46.1 147.75,-46.1"/>
</g>
<!-- c_1_28 -->
<g id="node6" class="node">
<title>c_1_28</title>
<ellipse fill="none" stroke="black" cx="247.25" cy="-18" rx="42.49" ry="18"/>
<text text-anchor="middle" x="247.25" y="-14.3" font-family="Times,serif" font-size="14.00">c_1_28</text>
</g>
<!-- 0&#45;&gt;c_1_28 -->
<g id="edge5" class="edge">
<title>0&#45;&gt;c_1_28</title>
<path fill="none" stroke="black" d="M162.66,-76.49C177.88,-66.14 199.78,-51.26 217.48,-39.23"/>
<polygon fill="black" stroke="black" points="219.48,-42.1 225.79,-33.59 215.55,-36.31 219.48,-42.1"/>
</g>
<!-- a_1_22 -->
<g id="node2" class="node">
<title>a_1_22</title>
<ellipse fill="none" stroke="black" cx="42.25" cy="-162" rx="42.49" ry="18"/>
<text text-anchor="middle" x="42.25" y="-158.3" font-family="Times,serif" font-size="14.00">a_1_22</text>
</g>
<!-- a_1_22&#45;&gt;0 -->
<g id="edge1" class="edge">
<title>a_1_22&#45;&gt;0</title>
<path fill="none" stroke="black" d="M63.88,-146.15C79.61,-135.36 101.01,-120.67 117.77,-109.17"/>
<polygon fill="black" stroke="black" points="119.79,-112.03 126.05,-103.48 115.83,-106.26 119.79,-112.03"/>
</g>
<!-- c_1_42 -->
<g id="node3" class="node">
<title>c_1_42</title>
<ellipse fill="none" stroke="black" cx="144.25" cy="-162" rx="42.49" ry="18"/>
<text text-anchor="middle" x="144.25" y="-158.3" font-family="Times,serif" font-size="14.00">c_1_42</text>
</g>
<!-- c_1_42&#45;&gt;0 -->
<g id="edge2" class="edge">
<title>c_1_42&#45;&gt;0</title>
<path fill="none" stroke="black" d="M144.25,-143.7C144.25,-135.98 144.25,-126.71 144.25,-118.11"/>
<polygon fill="black" stroke="black" points="147.75,-118.1 144.25,-108.1 140.75,-118.1 147.75,-118.1"/>
</g>
<!-- 1 -->
<g id="node7" class="node">
<title>1</title>
<ellipse fill="none" stroke="black" cx="231.25" cy="-162" rx="27" ry="18"/>
<text text-anchor="middle" x="231.25" y="-158.3" font-family="Times,serif" font-size="14.00">1</text>
</g>
<!-- 1&#45;&gt;0 -->
<g id="edge6" class="edge">
<title>1&#45;&gt;0</title>
<path fill="none" stroke="black" d="M214.47,-147.5C201.59,-137.14 183.61,-122.67 169.07,-110.97"/>
<polygon fill="black" stroke="black" points="170.95,-108 160.97,-104.46 166.57,-113.45 170.95,-108"/>
</g>
<!-- a_1_38 -->
<g id="node9" class="node">
<title>a_1_38</title>
<ellipse fill="none" stroke="black" cx="231.25" cy="-90" rx="42.49" ry="18"/>
<text text-anchor="middle" x="231.25" y="-86.3" font-family="Times,serif" font-size="14.00">a_1_38</text>
</g>
<!-- 1&#45;&gt;a_1_38 -->
<g id="edge8" class="edge">
<title>1&#45;&gt;a_1_38</title>
<path fill="none" stroke="black" d="M231.25,-143.7C231.25,-135.98 231.25,-126.71 231.25,-118.11"/>
<polygon fill="black" stroke="black" points="234.75,-118.1 231.25,-108.1 227.75,-118.1 234.75,-118.1"/>
</g>
<!-- a_1_48 -->
<g id="node8" class="node">
<title>a_1_48</title>
<ellipse fill="none" stroke="black" cx="231.25" cy="-234" rx="42.49" ry="18"/>
<text text-anchor="middle" x="231.25" y="-230.3" font-family="Times,serif" font-size="14.00">a_1_48</text>
</g>
<!-- a_1_48&#45;&gt;1 -->
<g id="edge7" class="edge">
<title>a_1_48&#45;&gt;1</title>
<path fill="none" stroke="black" d="M231.25,-215.7C231.25,-207.98 231.25,-198.71 231.25,-190.11"/>
<polygon fill="black" stroke="black" points="234.75,-190.1 231.25,-180.1 227.75,-190.1 234.75,-190.1"/>
</g>
<!-- 2 -->
<g id="node10" class="node">
<title>2</title>
<ellipse fill="none" stroke="black" cx="318.25" cy="-234" rx="27" ry="18"/>
<text text-anchor="middle" x="318.25" y="-230.3" font-family="Times,serif" font-size="14.00">2</text>
</g>
<!-- 2&#45;&gt;1 -->
<g id="edge9" class="edge">
<title>2&#45;&gt;1</title>
<path fill="none" stroke="black" d="M301.47,-219.5C288.59,-209.14 270.61,-194.67 256.07,-182.97"/>
<polygon fill="black" stroke="black" points="257.95,-180 247.97,-176.46 253.57,-185.45 257.95,-180"/>
</g>
<!-- b_1_44 -->
<g id="node12" class="node">
<title>b_1_44</title>
<ellipse fill="none" stroke="black" cx="319.25" cy="-162" rx="42.79" ry="18"/>
<text text-anchor="middle" x="319.25" y="-158.3" font-family="Times,serif" font-size="14.00">b_1_44</text>
</g>
<!-- 2&#45;&gt;b_1_44 -->
<g id="edge11" class="edge">
<title>2&#45;&gt;b_1_44</title>
<path fill="none" stroke="black" d="M318.49,-215.7C318.6,-207.98 318.74,-198.71 318.86,-190.11"/>
<polygon fill="black" stroke="black" points="322.36,-190.15 319,-180.1 315.36,-190.05 322.36,-190.15"/>
</g>
<!-- b_1_54 -->
<g id="node11" class="node">
<title>b_1_54</title>
<ellipse fill="none" stroke="black" cx="318.25" cy="-306" rx="42.79" ry="18"/>
<text text-anchor="middle" x="318.25" y="-302.3" font-family="Times,serif" font-size="14.00">b_1_54</text>
</g>
<!-- b_1_54&#45;&gt;2 -->
<g id="edge10" class="edge">
<title>b_1_54&#45;&gt;2</title>
<path fill="none" stroke="black" d="M318.25,-287.7C318.25,-279.98 318.25,-270.71 318.25,-262.11"/>
<polygon fill="black" stroke="black" points="321.75,-262.1 318.25,-252.1 314.75,-262.1 321.75,-262.1"/>
</g>
<!-- 3 -->
<g id="node13" class="node">
<title>3</title>
<ellipse fill="none" stroke="black" cx="406.25" cy="-306" rx="27" ry="18"/>
<text text-anchor="middle" x="406.25" y="-302.3" font-family="Times,serif" font-size="14.00">3</text>
</g>
<!-- 3&#45;&gt;2 -->
<g id="edge12" class="edge">
<title>3&#45;&gt;2</title>
<path fill="none" stroke="black" d="M389.28,-291.5C376.17,-281.08 357.83,-266.49 343.07,-254.75"/>
<polygon fill="black" stroke="black" points="344.87,-251.7 334.86,-248.22 340.51,-257.18 344.87,-251.7"/>
</g>
<!-- c_1_50 -->
<g id="node17" class="node">
<title>c_1_50</title>
<ellipse fill="none" stroke="black" cx="406.25" cy="-234" rx="42.49" ry="18"/>
<text text-anchor="middle" x="406.25" y="-230.3" font-family="Times,serif" font-size="14.00">c_1_50</text>
</g>
<!-- 3&#45;&gt;c_1_50 -->
<g id="edge16" class="edge">
<title>3&#45;&gt;c_1_50</title>
<path fill="none" stroke="black" d="M406.25,-287.7C406.25,-279.98 406.25,-270.71 406.25,-262.11"/>
<polygon fill="black" stroke="black" points="409.75,-262.1 406.25,-252.1 402.75,-262.1 409.75,-262.1"/>
</g>
<!-- a_1_59 -->
<g id="node14" class="node">
<title>a_1_59</title>
<ellipse fill="none" stroke="black" cx="303.25" cy="-378" rx="42.49" ry="18"/>
<text text-anchor="middle" x="303.25" y="-374.3" font-family="Times,serif" font-size="14.00">a_1_59</text>
</g>
<!-- a_1_59&#45;&gt;3 -->
<g id="edge13" class="edge">
<title>a_1_59&#45;&gt;3</title>
<path fill="none" stroke="black" d="M325.09,-362.15C340.98,-351.36 362.59,-336.67 379.51,-325.17"/>
<polygon fill="black" stroke="black" points="381.57,-328 387.88,-319.48 377.64,-322.21 381.57,-328"/>
</g>
<!-- b_1_63 -->
<g id="node15" class="node">
<title>b_1_63</title>
<ellipse fill="none" stroke="black" cx="406.25" cy="-378" rx="42.79" ry="18"/>
<text text-anchor="middle" x="406.25" y="-374.3" font-family="Times,serif" font-size="14.00">b_1_63</text>
</g>
<!-- b_1_63&#45;&gt;3 -->
<g id="edge14" class="edge">
<title>b_1_63&#45;&gt;3</title>
<path fill="none" stroke="black" d="M406.25,-359.7C406.25,-351.98 406.25,-342.71 406.25,-334.11"/>
<polygon fill="black" stroke="black" points="409.75,-334.1 406.25,-324.1 402.75,-334.1 409.75,-334.1"/>
</g>
<!-- c_1_67 -->
<g id="node16" class="node">
<title>c_1_67</title>
<ellipse fill="none" stroke="black" cx="509.25" cy="-378" rx="42.49" ry="18"/>
<text text-anchor="middle" x="509.25" y="-374.3" font-family="Times,serif" font-size="14.00">c_1_67</text>
</g>
<!-- c_1_67&#45;&gt;3 -->
<g id="edge15" class="edge">
<title>c_1_67&#45;&gt;3</title>
<path fill="none" stroke="black" d="M487.4,-362.15C471.51,-351.36 449.91,-336.67 432.98,-325.17"/>
<polygon fill="black" stroke="black" points="434.85,-322.21 424.62,-319.48 430.92,-328 434.85,-322.21"/>
</g>
</g>
</svg>
