<?xml version="1.0" encoding="UTF-8" standalone="no"?>
<!DOCTYPE svg PUBLIC "-//W3C//DTD SVG 1.1//EN"
 "http://www.w3.org/Graphics/SVG/1.1/DTD/svg11.dtd">
<!-- Generated by graphviz version 4.0.0 (0)
 -->
<!-- Pages: 1 -->
<svg width="428pt" height="332pt"
 viewBox="0.00 0.00 428.04 332.00" xmlns="http://www.w3.org/2000/svg" xmlns:xlink="http://www.w3.org/1999/xlink">
<g id="graph0" class="graph" transform="scale(1 1) rotate(0) translate(4 328)">
<polygon fill="white" stroke="transparent" points="-4,4 -4,-328 424.04,-328 424.04,4 -4,4"/>
<!-- 0 -->
<g id="node1" class="node">
<title>0</title>
<ellipse fill="none" stroke="black" cx="142.25" cy="-90" rx="27" ry="18"/>
<text text-anchor="middle" x="142.25" y="-86.3" font-family="Times,serif" font-size="14.00">0</text>
</g>
<!-- a_1_4 -->
<g id="node4" class="node">
<title>a_1_4</title>
<ellipse fill="none" stroke="black" cx="45.25" cy="-18" rx="36.29" ry="18"/>
<text text-anchor="middle" x="45.25" y="-14.3" font-family="Times,serif" font-size="14.00">a_1_4</text>
</g>
<!-- 0&#45;&gt;a_1_4 -->
<g id="edge3" class="edge">
<title>0&#45;&gt;a_1_4</title>
<path fill="none" stroke="black" d="M124.45,-76.16C110.11,-65.81 89.68,-51.06 73.16,-39.14"/>
<polygon fill="black" stroke="black" points="75.08,-36.22 64.93,-33.2 70.99,-41.89 75.08,-36.22"/>
</g>
<!-- b_1_14 -->
<g id="node5" class="node">
<title>b_1_14</title>
<ellipse fill="none" stroke="black" cx="142.25" cy="-18" rx="42.79" ry="18"/>
<text text-anchor="middle" x="142.25" y="-14.3" font-family="Times,serif" font-size="14.00">b_1_14</text>
</g>
<!-- 0&#45;&gt;b_1_14 -->
<g id="edge4" class="edge">
<title>0&#45;&gt;b_1_14</title>
<path fill="none" stroke="black" d="M142.25,-71.7C142.25,-63.98 142.25,-54.71 142.25,-46.11"/>
<polygon fill="black" stroke="black" points="145.75,-46.1 142.25,-36.1 138.75,-46.1 145.75,-46.1"/>
</g>
<!-- c_1_28 -->
<g id="node6" class="node">
<title>c_1_28</title>
<ellipse fill="none" stroke="black" cx="245.25" cy="-18" rx="42.49" ry="18"/>
<text text-anchor="middle" x="245.25" y="-14.3" font-family="Times,serif" font-size="14.00">c_1_28</text>
</g>
<!-- 0&#45;&gt;c_1_28 -->
<g id="edge5" class="edge">
<title>0&#45;&gt;c_1_28</title>
<path fill="none" stroke="black" d="M160.66,-76.49C175.88,-66.14 197.78,-51.26 215.48,-39.23"/>
<polygon fill="black" stroke="black" points="217.48,-42.1 223.79,-33.59 213.55,-36.31 217.48,-42.1"/>
</g>
<!-- a_1_22 -->
<g id="node2" class="node">
<title>a_1_22</title>
<ellipse fill="none" stroke="black" cx="42.25" cy="-162" rx="42.49" ry="18"/>
<text text-anchor="middle" x="42.25" y="-158.3" font-family="Times,serif" font-size="14.00">a_1_22</text>
</g>
<!-- a_1_22&#45;&gt;0 -->
<g id="edge1" class="edge">
<title>a_1_22&#45;&gt;0</title>
<path fill="none" stroke="black" d="M63.45,-146.15C78.64,-135.52 99.21,-121.13 115.52,-109.71"/>
<polygon fill="black" stroke="black" points="117.9,-112.31 124.09,-103.71 113.89,-106.58 117.9,-112.31"/>
</g>
<!-- c_1_43 -->
<g id="node3" class="node">
<title>c_1_43</title>
<ellipse fill="none" stroke="black" cx="144.25" cy="-162" rx="42.49" ry="18"/>
<text text-anchor="middle" x="144.25" y="-158.3" font-family="Times,serif" font-size="14.00">c_1_43</text>
</g>
<!-- c_1_43&#45;&gt;0 -->
<g id="edge2" class="edge">
<title>c_1_43&#45;&gt;0</title>
<path fill="none" stroke="black" d="M143.75,-143.7C143.53,-135.98 143.27,-126.71 143.02,-118.11"/>
<polygon fill="black" stroke="black" points="146.52,-118 142.73,-108.1 139.52,-118.2 146.52,-118"/>
</g>
<!-- 1 -->
<g id="node7" class="node">
<title>1</title>
<ellipse fill="none" stroke="black" cx="234.25" cy="-162" rx="27" ry="18"/>
<text text-anchor="middle" x="234.25" y="-158.3" font-family="Times,serif" font-size="14.00">1</text>
</g>
<!-- 1&#45;&gt;0 -->
<g id="edge6" class="edge">
<title>1&#45;&gt;0</title>
<path fill="none" stroke="black" d="M216.94,-147.83C203.06,-137.27 183.38,-122.3 167.71,-110.37"/>
<polygon fill="black" stroke="black" points="169.55,-107.38 159.47,-104.11 165.31,-112.95 169.55,-107.38"/>
</g>
<!-- aa_1_38 -->
<g id="node8" class="node">
<title>aa_1_38</title>
<ellipse fill="none" stroke="black" cx="235.25" cy="-90" rx="48.19" ry="18"/>
<text text-anchor="middle" x="235.25" y="-86.3" font-family="Times,serif" font-size="14.00">aa_1_38</text>
</g>
<!-- 1&#45;&gt;aa_1_38 -->
<g id="edge7" class="edge">
<title>1&#45;&gt;aa_1_38</title>
<path fill="none" stroke="black" d="M234.49,-143.7C234.6,-135.98 234.74,-126.71 234.86,-118.11"/>
<polygon fill="black" stroke="black" points="238.36,-118.15 235,-108.1 231.36,-118.05 238.36,-118.15"/>
</g>
<!-- 2 -->
<g id="node9" class="node">
<title>2</title>
<ellipse fill="none" stroke="black" cx="281.25" cy="-234" rx="27" ry="18"/>
<text text-anchor="middle" x="281.25" y="-230.3" font-family="Times,serif" font-size="14.00">2</text>
</g>
<!-- 2&#45;&gt;1 -->
<g id="edge8" class="edge">
<title>2&#45;&gt;1</title>
<path fill="none" stroke="black" d="M270.58,-217.12C264.69,-208.34 257.25,-197.26 250.64,-187.42"/>
<polygon fill="black" stroke="black" points="253.35,-185.17 244.87,-178.82 247.54,-189.07 253.35,-185.17"/>
</g>
<!-- bb_1_45 -->
<g id="node10" class="node">
<title>bb_1_45</title>
<ellipse fill="none" stroke="black" cx="328.25" cy="-162" rx="48.99" ry="18"/>
<text text-anchor="middle" x="328.25" y="-158.3" font-family="Times,serif" font-size="14.00">bb_1_45</text>
</g>
<!-- 2&#45;&gt;bb_1_45 -->
<g id="edge9" class="edge">
<title>2&#45;&gt;bb_1_45</title>
<path fill="none" stroke="black" d="M291.91,-217.12C297.63,-208.59 304.82,-197.89 311.29,-188.25"/>
<polygon fill="black" stroke="black" points="314.3,-190.05 316.97,-179.8 308.49,-186.15 314.3,-190.05"/>
</g>
<!-- 3 -->
<g id="node11" class="node">
<title>3</title>
<ellipse fill="none" stroke="black" cx="327.25" cy="-306" rx="27" ry="18"/>
<text text-anchor="middle" x="327.25" y="-302.3" font-family="Times,serif" font-size="14.00">3</text>
</g>
<!-- 3&#45;&gt;2 -->
<g id="edge10" class="edge">
<title>3&#45;&gt;2</title>
<path fill="none" stroke="black" d="M316.81,-289.12C311.04,-280.34 303.76,-269.26 297.29,-259.42"/>
<polygon fill="black" stroke="black" points="300.06,-257.26 291.64,-250.82 294.21,-261.1 300.06,-257.26"/>
</g>
<!-- cc_1_52 -->
<g id="node12" class="node">
<title>cc_1_52</title>
<ellipse fill="none" stroke="black" cx="373.25" cy="-234" rx="46.59" ry="18"/>
<text text-anchor="middle" x="373.25" y="-230.3" font-family="Times,serif" font-size="14.00">cc_1_52</text>
</g>
<!-- 3&#45;&gt;cc_1_52 -->
<g id="edge11" class="edge">
<title>3&#45;&gt;cc_1_52</title>
<path fill="none" stroke="black" d="M337.68,-289.12C343.29,-280.59 350.32,-269.89 356.65,-260.25"/>
<polygon fill="black" stroke="black" points="359.64,-262.08 362.21,-251.8 353.79,-258.23 359.64,-262.08"/>
</g>
</g>
</svg>
