<?xml version="1.0" encoding="UTF-8" standalone="no"?>
<!DOCTYPE svg PUBLIC "-//W3C//DTD SVG 1.1//EN"
 "http://www.w3.org/Graphics/SVG/1.1/DTD/svg11.dtd">
<!-- Generated by graphviz version 4.0.0 (0)
 -->
<!-- Pages: 1 -->
<svg width="708pt" height="116pt"
 viewBox="0.00 0.00 708.49 116.00" xmlns="http://www.w3.org/2000/svg" xmlns:xlink="http://www.w3.org/1999/xlink">
<g id="graph0" class="graph" transform="scale(1 1) rotate(0) translate(4 112)">
<polygon fill="white" stroke="transparent" points="-4,4 -4,-112 704.49,-112 704.49,4 -4,4"/>
<!-- a_1_22 -->
<g id="node1" class="node">
<title>a_1_22</title>
<ellipse fill="none" stroke="black" cx="42.25" cy="-90" rx="42.49" ry="18"/>
<text text-anchor="middle" x="42.25" y="-86.3" font-family="Times,serif" font-size="14.00">a_1_22</text>
</g>
<!-- a_1_4 -->
<g id="node2" class="node">
<title>a_1_4</title>
<ellipse fill="none" stroke="black" cx="42.25" cy="-18" rx="36.29" ry="18"/>
<text text-anchor="middle" x="42.25" y="-14.3" font-family="Times,serif" font-size="14.00">a_1_4</text>
</g>
<!-- a_1_22&#45;&gt;a_1_4 -->
<g id="edge1" class="edge">
<title>a_1_22&#45;&gt;a_1_4</title>
<path fill="none" stroke="black" d="M42.25,-71.7C42.25,-63.98 42.25,-54.71 42.25,-46.11"/>
<polygon fill="black" stroke="black" points="45.75,-46.1 42.25,-36.1 38.75,-46.1 45.75,-46.1"/>
</g>
<!-- c_1_42 -->
<g id="node3" class="node">
<title>c_1_42</title>
<ellipse fill="none" stroke="black" cx="144.25" cy="-90" rx="42.49" ry="18"/>
<text text-anchor="middle" x="144.25" y="-86.3" font-family="Times,serif" font-size="14.00">c_1_42</text>
</g>
<!-- c_1_28 -->
<g id="node4" class="node">
<title>c_1_28</title>
<ellipse fill="none" stroke="black" cx="144.25" cy="-18" rx="42.49" ry="18"/>
<text text-anchor="middle" x="144.25" y="-14.3" font-family="Times,serif" font-size="14.00">c_1_28</text>
</g>
<!-- c_1_42&#45;&gt;c_1_28 -->
<g id="edge2" class="edge">
<title>c_1_42&#45;&gt;c_1_28</title>
<path fill="none" stroke="black" d="M144.25,-71.7C144.25,-63.98 144.25,-54.71 144.25,-46.11"/>
<polygon fill="black" stroke="black" points="147.75,-46.1 144.25,-36.1 140.75,-46.1 147.75,-46.1"/>
</g>
<!-- a_1_48 -->
<g id="node5" class="node">
<title>a_1_48</title>
<ellipse fill="none" stroke="black" cx="246.25" cy="-90" rx="42.49" ry="18"/>
<text text-anchor="middle" x="246.25" y="-86.3" font-family="Times,serif" font-size="14.00">a_1_48</text>
</g>
<!-- a_1_38 -->
<g id="node6" class="node">
<title>a_1_38</title>
<ellipse fill="none" stroke="black" cx="297.25" cy="-18" rx="42.49" ry="18"/>
<text text-anchor="middle" x="297.25" y="-14.3" font-family="Times,serif" font-size="14.00">a_1_38</text>
</g>
<!-- a_1_48&#45;&gt;a_1_38 -->
<g id="edge3" class="edge">
<title>a_1_48&#45;&gt;a_1_38</title>
<path fill="none" stroke="black" d="M258.33,-72.41C264.56,-63.87 272.27,-53.28 279.19,-43.79"/>
<polygon fill="black" stroke="black" points="282.19,-45.61 285.25,-35.47 276.53,-41.49 282.19,-45.61"/>
</g>
<!-- b_1_54 -->
<g id="node7" class="node">
<title>b_1_54</title>
<ellipse fill="none" stroke="black" cx="451.25" cy="-90" rx="42.79" ry="18"/>
<text text-anchor="middle" x="451.25" y="-86.3" font-family="Times,serif" font-size="14.00">b_1_54</text>
</g>
<!-- b_1_44 -->
<g id="node8" class="node">
<title>b_1_44</title>
<ellipse fill="none" stroke="black" cx="503.25" cy="-18" rx="42.79" ry="18"/>
<text text-anchor="middle" x="503.25" y="-14.3" font-family="Times,serif" font-size="14.00">b_1_44</text>
</g>
<!-- b_1_54&#45;&gt;b_1_44 -->
<g id="edge4" class="edge">
<title>b_1_54&#45;&gt;b_1_44</title>
<path fill="none" stroke="black" d="M463.57,-72.41C469.92,-63.87 477.78,-53.28 484.83,-43.79"/>
<polygon fill="black" stroke="black" points="487.86,-45.58 491.01,-35.47 482.24,-41.41 487.86,-45.58"/>
</g>
<!-- a_1_59 -->
<g id="node9" class="node">
<title>a_1_59</title>
<ellipse fill="none" stroke="black" cx="348.25" cy="-90" rx="42.49" ry="18"/>
<text text-anchor="middle" x="348.25" y="-86.3" font-family="Times,serif" font-size="14.00">a_1_59</text>
</g>
<!-- a_1_59&#45;&gt;a_1_38 -->
<g id="edge5" class="edge">
<title>a_1_59&#45;&gt;a_1_38</title>
<path fill="none" stroke="black" d="M336.16,-72.41C329.94,-63.87 322.22,-53.28 315.31,-43.79"/>
<polygon fill="black" stroke="black" points="317.96,-41.49 309.25,-35.47 312.31,-45.61 317.96,-41.49"/>
</g>
<!-- b_1_63 -->
<g id="node10" class="node">
<title>b_1_63</title>
<ellipse fill="none" stroke="black" cx="555.25" cy="-90" rx="42.79" ry="18"/>
<text text-anchor="middle" x="555.25" y="-86.3" font-family="Times,serif" font-size="14.00">b_1_63</text>
</g>
<!-- b_1_63&#45;&gt;b_1_44 -->
<g id="edge6" class="edge">
<title>b_1_63&#45;&gt;b_1_44</title>
<path fill="none" stroke="black" d="M542.92,-72.41C536.58,-63.87 528.71,-53.28 521.66,-43.79"/>
<polygon fill="black" stroke="black" points="524.25,-41.41 515.48,-35.47 518.63,-45.58 524.25,-41.41"/>
</g>
<!-- c_1_67 -->
<g id="node11" class="node">
<title>c_1_67</title>
<ellipse fill="none" stroke="black" cx="658.25" cy="-90" rx="42.49" ry="18"/>
<text text-anchor="middle" x="658.25" y="-86.3" font-family="Times,serif" font-size="14.00">c_1_67</text>
</g>
<!-- c_1_50 -->
<g id="node12" class="node">
<title>c_1_50</title>
<ellipse fill="none" stroke="black" cx="658.25" cy="-18" rx="42.49" ry="18"/>
<text text-anchor="middle" x="658.25" y="-14.3" font-family="Times,serif" font-size="14.00">c_1_50</text>
</g>
<!-- c_1_67&#45;&gt;c_1_50 -->
<g id="edge7" class="edge">
<title>c_1_67&#45;&gt;c_1_50</title>
<path fill="none" stroke="black" d="M658.25,-71.7C658.25,-63.98 658.25,-54.71 658.25,-46.11"/>
<polygon fill="black" stroke="black" points="661.75,-46.1 658.25,-36.1 654.75,-46.1 661.75,-46.1"/>
</g>
</g>
</svg>
